<mxfile modified="2023-05-30T19:52:05.232Z" host="app.diagrams.net" agent="Mozilla/5.0 (Windows NT 10.0; Win64; x64) AppleWebKit/537.36 (KHTML, like Gecko) Chrome/113.0.0.0 Safari/537.36" etag="P7M3p1J-jn_jWal-vhc7" version="21.3.5" type="github">
  <diagram id="Ht1M8jgEwFfnCIfOTk4-" name="Page-1">
    <mxGraphModel dx="1323" dy="770" grid="1" gridSize="10" guides="1" tooltips="1" connect="1" arrows="1" fold="1" page="1" pageScale="1" pageWidth="1169" pageHeight="827" math="0" shadow="0">
      <root>
        <mxCell id="0" />
        <mxCell id="1" parent="0" />
        <mxCell id="WOdKIQveHSRAC7E8Slvm-51" style="edgeStyle=orthogonalEdgeStyle;rounded=0;orthogonalLoop=1;jettySize=auto;html=1;" edge="1" parent="1" source="WOdKIQveHSRAC7E8Slvm-18" target="WOdKIQveHSRAC7E8Slvm-38">
          <mxGeometry relative="1" as="geometry" />
        </mxCell>
        <mxCell id="WOdKIQveHSRAC7E8Slvm-56" style="edgeStyle=orthogonalEdgeStyle;rounded=0;orthogonalLoop=1;jettySize=auto;html=1;dashed=1;" edge="1" parent="1" source="WOdKIQveHSRAC7E8Slvm-18" target="WOdKIQveHSRAC7E8Slvm-55">
          <mxGeometry relative="1" as="geometry">
            <Array as="points">
              <mxPoint x="495" y="47" />
            </Array>
          </mxGeometry>
        </mxCell>
        <mxCell id="WOdKIQveHSRAC7E8Slvm-18" value="Identity provider" style="editableCssRules=.*;html=1;shape=image;verticalLabelPosition=bottom;labelBackgroundColor=#ffffff;verticalAlign=top;aspect=fixed;imageAspect=0;image=data:image/svg+xml,PHN2ZyB4bWxucz0iaHR0cDovL3d3dy53My5vcmcvMjAwMC9zdmciIHhtbG5zOnY9Imh0dHBzOi8vdmVjdGEuaW8vbmFubyIgd2lkdGg9IjE2LjQyMDAwMDA3NjI5Mzk0NSIgaGVpZ2h0PSIyMC4wNDk5OTkyMzcwNjA1NDciIGZpbGwtcnVsZT0iZXZlbm9kZCIgdmlld0JveD0iMCAwIDE2LjQyMDAwMDA3NjI5Mzk0NSAyMC4wNDk5OTkyMzcwNjA1NDciPiYjeGE7CTxzdHlsZSB0eXBlPSJ0ZXh0L2NzcyI+LnN0MCB7IGZpbGw6IHJnYig4MCwgODAsIDgwKTsgfSAuc3QxIHsgZmlsbDogcmdiKDgwLCA4MCwgODApOyB9IDwvc3R5bGU+JiN4YTsJPHBhdGggY2xhc3M9InN0MSIgZD0iTTguMjEgMEwwIDMuNDJ2NS42M2MwIDUuMDYgMy41IDkuOCA4LjIxIDExIDQuNzEtMS4xNSA4LjIxLTUuODkgOC4yMS0xMC45NVYzLjQyem0wIDMuNzlhMi42MyAyLjYzIDAgMCAxIDEuMDA1IDUuMDZBMi42MyAyLjYzIDAgMCAxIDYuMzUgNC41NmEyLjYzIDIuNjMgMCAwIDEgMS44Ni0uNzd6bTQuMTEgMTEuMTVhOC42NCA4LjY0IDAgMCAxLTQuMTEgMi45MyA4LjY0IDguNjQgMCAwIDEtNC4xMS0yLjkzdi0yLjI1YzAtMS42NyAyLjc0LTIuNTIgNC4xMS0yLjUyczQuMTEuODUgNC4xMSAyLjUyeiIvPiYjeGE7CTxwYXRoIGNsYXNzPSJzdDAiIGQ9Ik04LjIxIDB2My43OWEyLjYzIDIuNjMgMCAxIDEgMCA1LjI2djEuMTJjMS4zNyAwIDQuMTEuODUgNC4xMSAyLjUydjIuMjVhOC42NCA4LjY0IDAgMCAxLTQuMTEgMi45M1YyMGM0LjcxLTEuMTUgOC4yMS01Ljg5IDguMjEtMTAuOTVWMy40MnoiLz4mI3hhOzwvc3ZnPg==;" vertex="1" parent="1">
          <mxGeometry x="464" y="123.25" width="62" height="77.5" as="geometry" />
        </mxCell>
        <mxCell id="WOdKIQveHSRAC7E8Slvm-36" style="edgeStyle=orthogonalEdgeStyle;rounded=0;orthogonalLoop=1;jettySize=auto;html=1;" edge="1" parent="1" source="WOdKIQveHSRAC7E8Slvm-27" target="WOdKIQveHSRAC7E8Slvm-34">
          <mxGeometry relative="1" as="geometry" />
        </mxCell>
        <mxCell id="WOdKIQveHSRAC7E8Slvm-27" value="Poltal AXA.CO" style="sketch=0;pointerEvents=1;shadow=0;dashed=0;html=1;strokeColor=none;labelPosition=center;verticalLabelPosition=bottom;verticalAlign=top;align=center;fillColor=#505050;shape=mxgraph.mscae.intune.company_portal" vertex="1" parent="1">
          <mxGeometry x="87" y="320" width="83" height="74" as="geometry" />
        </mxCell>
        <mxCell id="WOdKIQveHSRAC7E8Slvm-33" style="edgeStyle=orthogonalEdgeStyle;rounded=0;orthogonalLoop=1;jettySize=auto;html=1;entryX=0.5;entryY=0;entryDx=0;entryDy=0;entryPerimeter=0;" edge="1" parent="1" source="WOdKIQveHSRAC7E8Slvm-28" target="WOdKIQveHSRAC7E8Slvm-27">
          <mxGeometry relative="1" as="geometry" />
        </mxCell>
        <mxCell id="WOdKIQveHSRAC7E8Slvm-58" style="edgeStyle=orthogonalEdgeStyle;rounded=0;orthogonalLoop=1;jettySize=auto;html=1;dashed=1;" edge="1" parent="1" source="WOdKIQveHSRAC7E8Slvm-28" target="WOdKIQveHSRAC7E8Slvm-34">
          <mxGeometry relative="1" as="geometry">
            <mxPoint x="470" y="310" as="targetPoint" />
            <Array as="points">
              <mxPoint x="470" y="195" />
            </Array>
          </mxGeometry>
        </mxCell>
        <mxCell id="WOdKIQveHSRAC7E8Slvm-28" value="" style="sketch=0;pointerEvents=1;shadow=0;dashed=0;html=1;strokeColor=none;labelPosition=center;verticalLabelPosition=bottom;verticalAlign=top;align=center;fillColor=#505050;shape=mxgraph.mscae.intune.account_portal" vertex="1" parent="1">
          <mxGeometry x="107" y="170" width="43" height="50" as="geometry" />
        </mxCell>
        <mxCell id="WOdKIQveHSRAC7E8Slvm-50" style="edgeStyle=orthogonalEdgeStyle;rounded=0;orthogonalLoop=1;jettySize=auto;html=1;" edge="1" parent="1" source="WOdKIQveHSRAC7E8Slvm-34" target="WOdKIQveHSRAC7E8Slvm-18">
          <mxGeometry relative="1" as="geometry">
            <Array as="points">
              <mxPoint x="510" y="260" />
              <mxPoint x="510" y="260" />
            </Array>
          </mxGeometry>
        </mxCell>
        <mxCell id="WOdKIQveHSRAC7E8Slvm-60" style="edgeStyle=orthogonalEdgeStyle;rounded=0;orthogonalLoop=1;jettySize=auto;html=1;dashed=1;" edge="1" parent="1" source="WOdKIQveHSRAC7E8Slvm-34">
          <mxGeometry relative="1" as="geometry">
            <mxPoint x="490" y="200" as="targetPoint" />
            <Array as="points">
              <mxPoint x="490" y="201" />
            </Array>
          </mxGeometry>
        </mxCell>
        <mxCell id="WOdKIQveHSRAC7E8Slvm-61" style="edgeStyle=orthogonalEdgeStyle;rounded=0;orthogonalLoop=1;jettySize=auto;html=1;" edge="1" parent="1" source="WOdKIQveHSRAC7E8Slvm-34" target="WOdKIQveHSRAC7E8Slvm-37">
          <mxGeometry relative="1" as="geometry" />
        </mxCell>
        <mxCell id="WOdKIQveHSRAC7E8Slvm-34" value="APP Login" style="sketch=0;outlineConnect=0;fillColor=none;dashed=0;verticalLabelPosition=middle;verticalAlign=bottom;align=center;html=1;whiteSpace=wrap;fontSize=10;fontStyle=1;spacing=3;shape=mxgraph.aws4.productIcon;prIcon=mxgraph.aws4.identity_and_access_management;" vertex="1" parent="1">
          <mxGeometry x="450" y="312" width="90" height="90" as="geometry" />
        </mxCell>
        <mxCell id="WOdKIQveHSRAC7E8Slvm-37" value="" style="image;aspect=fixed;html=1;points=[];align=center;fontSize=12;image=img/lib/azure2/app_services/App_Service_Domains.svg;imageBackground=none;" vertex="1" parent="1">
          <mxGeometry x="456.25" y="510" width="77.5" height="62" as="geometry" />
        </mxCell>
        <mxCell id="WOdKIQveHSRAC7E8Slvm-53" style="edgeStyle=orthogonalEdgeStyle;rounded=0;orthogonalLoop=1;jettySize=auto;html=1;entryX=1;entryY=0.75;entryDx=0;entryDy=0;" edge="1" parent="1" source="WOdKIQveHSRAC7E8Slvm-38" target="WOdKIQveHSRAC7E8Slvm-18">
          <mxGeometry relative="1" as="geometry">
            <Array as="points">
              <mxPoint x="668" y="180" />
            </Array>
          </mxGeometry>
        </mxCell>
        <mxCell id="WOdKIQveHSRAC7E8Slvm-38" value="Active Directory" style="sketch=0;pointerEvents=1;shadow=0;dashed=0;html=1;strokeColor=none;fillColor=#505050;labelPosition=center;verticalLabelPosition=bottom;verticalAlign=top;outlineConnect=0;align=center;shape=mxgraph.office.security.active_directory;" vertex="1" parent="1">
          <mxGeometry x="810" y="120" width="90" height="84" as="geometry" />
        </mxCell>
        <mxCell id="WOdKIQveHSRAC7E8Slvm-44" value="" style="sketch=0;outlineConnect=0;fontColor=#232F3E;gradientColor=none;fillColor=#232F3D;strokeColor=none;dashed=0;verticalLabelPosition=bottom;verticalAlign=top;align=center;html=1;fontSize=12;fontStyle=0;aspect=fixed;pointerEvents=1;shape=mxgraph.aws4.servers;" vertex="1" parent="1">
          <mxGeometry x="840" y="319" width="78" height="78" as="geometry" />
        </mxCell>
        <mxCell id="WOdKIQveHSRAC7E8Slvm-57" style="edgeStyle=orthogonalEdgeStyle;rounded=0;orthogonalLoop=1;jettySize=auto;html=1;entryX=0.5;entryY=0;entryDx=0;entryDy=0;entryPerimeter=0;dashed=1;" edge="1" parent="1" source="WOdKIQveHSRAC7E8Slvm-55" target="WOdKIQveHSRAC7E8Slvm-28">
          <mxGeometry relative="1" as="geometry" />
        </mxCell>
        <mxCell id="WOdKIQveHSRAC7E8Slvm-55" value="devices" style="sketch=0;outlineConnect=0;gradientColor=none;fontColor=#545B64;strokeColor=none;fillColor=#879196;dashed=0;verticalLabelPosition=bottom;verticalAlign=top;align=center;html=1;fontSize=12;fontStyle=0;aspect=fixed;shape=mxgraph.aws4.illustration_devices;pointerEvents=1" vertex="1" parent="1">
          <mxGeometry x="79" y="10" width="100" height="73" as="geometry" />
        </mxCell>
        <mxCell id="WOdKIQveHSRAC7E8Slvm-59" value="" style="endArrow=classic;html=1;rounded=0;" edge="1" parent="1" source="WOdKIQveHSRAC7E8Slvm-34" target="WOdKIQveHSRAC7E8Slvm-44">
          <mxGeometry width="50" height="50" relative="1" as="geometry">
            <mxPoint x="520" y="420" as="sourcePoint" />
            <mxPoint x="570" y="370" as="targetPoint" />
          </mxGeometry>
        </mxCell>
      </root>
    </mxGraphModel>
  </diagram>
</mxfile>
